<mxfile host="app.diagrams.net" agent="Mozilla/5.0 (X11; Linux x86_64) AppleWebKit/537.36 (KHTML, like Gecko) Chrome/130.0.0.0 Safari/537.36" version="24.8.6">
  <diagram name="ページ1" id="l1bgYh5hEwsTHV1BMhRp">
    <mxGraphModel dx="1368" dy="788" grid="1" gridSize="10" guides="1" tooltips="1" connect="1" arrows="1" fold="1" page="1" pageScale="1" pageWidth="1169" pageHeight="1654" math="0" shadow="0">
      <root>
        <mxCell id="0" />
        <mxCell id="1" parent="0" />
        <mxCell id="pz5psoKOltUB96HxPEzv-1" value="AWS Cloud" style="points=[[0,0],[0.25,0],[0.5,0],[0.75,0],[1,0],[1,0.25],[1,0.5],[1,0.75],[1,1],[0.75,1],[0.5,1],[0.25,1],[0,1],[0,0.75],[0,0.5],[0,0.25]];outlineConnect=0;gradientColor=none;html=1;whiteSpace=wrap;fontSize=12;fontStyle=0;container=0;pointerEvents=0;collapsible=0;recursiveResize=0;shape=mxgraph.aws4.group;grIcon=mxgraph.aws4.group_aws_cloud_alt;strokeColor=#232F3E;fillColor=none;verticalAlign=top;align=left;spacingLeft=30;fontColor=#232F3E;dashed=0;movable=1;resizable=1;rotatable=1;deletable=1;editable=1;locked=0;connectable=1;" vertex="1" parent="1">
          <mxGeometry x="30" y="480" width="1110" height="1070" as="geometry" />
        </mxCell>
        <mxCell id="pz5psoKOltUB96HxPEzv-9" style="edgeStyle=orthogonalEdgeStyle;rounded=0;orthogonalLoop=1;jettySize=auto;html=1;exitX=0.5;exitY=1;exitDx=0;exitDy=0;movable=1;resizable=1;rotatable=1;deletable=1;editable=1;locked=0;connectable=1;" edge="1" parent="1" source="pz5psoKOltUB96HxPEzv-1" target="pz5psoKOltUB96HxPEzv-1">
          <mxGeometry relative="1" as="geometry" />
        </mxCell>
        <mxCell id="pz5psoKOltUB96HxPEzv-18" value="" style="sketch=0;points=[[0,0,0],[0.25,0,0],[0.5,0,0],[0.75,0,0],[1,0,0],[0,1,0],[0.25,1,0],[0.5,1,0],[0.75,1,0],[1,1,0],[0,0.25,0],[0,0.5,0],[0,0.75,0],[1,0.25,0],[1,0.5,0],[1,0.75,0]];outlineConnect=0;fontColor=#232F3E;fillColor=#8C4FFF;strokeColor=#ffffff;dashed=0;verticalLabelPosition=bottom;verticalAlign=top;align=center;html=1;fontSize=12;fontStyle=0;aspect=fixed;shape=mxgraph.aws4.resourceIcon;resIcon=mxgraph.aws4.route_53;movable=1;resizable=1;rotatable=1;deletable=1;editable=1;locked=0;connectable=1;" vertex="1" parent="1">
          <mxGeometry x="773.7272727272727" y="556" width="71.61818181818182" height="71.61818181818182" as="geometry" />
        </mxCell>
        <mxCell id="pz5psoKOltUB96HxPEzv-8" value="Region" style="points=[[0,0],[0.25,0],[0.5,0],[0.75,0],[1,0],[1,0.25],[1,0.5],[1,0.75],[1,1],[0.75,1],[0.5,1],[0.25,1],[0,1],[0,0.75],[0,0.5],[0,0.25]];outlineConnect=0;gradientColor=none;html=1;whiteSpace=wrap;fontSize=12;fontStyle=0;container=0;pointerEvents=0;collapsible=0;recursiveResize=0;shape=mxgraph.aws4.group;grIcon=mxgraph.aws4.group_region;strokeColor=#00A4A6;fillColor=none;verticalAlign=top;align=left;spacingLeft=30;fontColor=#147EBA;dashed=1;movable=1;resizable=1;rotatable=1;deletable=1;editable=1;locked=0;connectable=1;" vertex="1" parent="1">
          <mxGeometry x="66.72727272727272" y="546.6666666666666" width="936.5454545454546" height="896" as="geometry" />
        </mxCell>
        <mxCell id="pz5psoKOltUB96HxPEzv-10" value="Availability Zone" style="fillColor=none;strokeColor=#147EBA;dashed=1;verticalAlign=top;fontStyle=0;fontColor=#147EBA;whiteSpace=wrap;html=1;movable=1;resizable=1;rotatable=1;deletable=1;editable=1;locked=0;connectable=1;" vertex="1" parent="1">
          <mxGeometry x="110" y="780" width="390" height="620" as="geometry" />
        </mxCell>
        <mxCell id="pz5psoKOltUB96HxPEzv-11" value="Availability Zone" style="fillColor=none;strokeColor=#147EBA;dashed=1;verticalAlign=top;fontStyle=0;fontColor=#147EBA;whiteSpace=wrap;html=1;movable=1;resizable=1;rotatable=1;deletable=1;editable=1;locked=0;connectable=1;" vertex="1" parent="1">
          <mxGeometry x="562.55" y="780" width="404" height="620" as="geometry" />
        </mxCell>
        <mxCell id="pz5psoKOltUB96HxPEzv-13" value="Public subnet" style="points=[[0,0],[0.25,0],[0.5,0],[0.75,0],[1,0],[1,0.25],[1,0.5],[1,0.75],[1,1],[0.75,1],[0.5,1],[0.25,1],[0,1],[0,0.75],[0,0.5],[0,0.25]];outlineConnect=0;gradientColor=none;html=1;whiteSpace=wrap;fontSize=12;fontStyle=0;container=1;pointerEvents=0;collapsible=0;recursiveResize=0;shape=mxgraph.aws4.group;grIcon=mxgraph.aws4.group_security_group;grStroke=0;strokeColor=#7AA116;fillColor=#F2F6E8;verticalAlign=top;align=left;spacingLeft=30;fontColor=#248814;dashed=0;movable=1;resizable=1;rotatable=1;deletable=1;editable=1;locked=0;connectable=1;" vertex="1" parent="1">
          <mxGeometry x="140.1818181818182" y="817.3333333333333" width="330.54545454545456" height="214.66666666666666" as="geometry" />
        </mxCell>
        <mxCell id="pz5psoKOltUB96HxPEzv-14" value="Public subnet" style="points=[[0,0],[0.25,0],[0.5,0],[0.75,0],[1,0],[1,0.25],[1,0.5],[1,0.75],[1,1],[0.75,1],[0.5,1],[0.25,1],[0,1],[0,0.75],[0,0.5],[0,0.25]];outlineConnect=0;gradientColor=none;html=1;whiteSpace=wrap;fontSize=12;fontStyle=0;container=1;pointerEvents=0;collapsible=0;recursiveResize=0;shape=mxgraph.aws4.group;grIcon=mxgraph.aws4.group_security_group;grStroke=0;strokeColor=#7AA116;fillColor=#F2F6E8;verticalAlign=top;align=left;spacingLeft=30;fontColor=#248814;dashed=0;movable=1;resizable=1;rotatable=1;deletable=1;editable=1;locked=0;connectable=1;" vertex="1" parent="1">
          <mxGeometry x="599.2727272727273" y="817.3333333333333" width="330.54545454545456" height="214.66666666666666" as="geometry" />
        </mxCell>
        <mxCell id="pz5psoKOltUB96HxPEzv-15" value="Private subnet" style="points=[[0,0],[0.25,0],[0.5,0],[0.75,0],[1,0],[1,0.25],[1,0.5],[1,0.75],[1,1],[0.75,1],[0.5,1],[0.25,1],[0,1],[0,0.75],[0,0.5],[0,0.25]];outlineConnect=0;gradientColor=none;html=1;whiteSpace=wrap;fontSize=12;fontStyle=0;container=1;pointerEvents=0;collapsible=0;recursiveResize=0;shape=mxgraph.aws4.group;grIcon=mxgraph.aws4.group_security_group;grStroke=0;strokeColor=#00A4A6;fillColor=#E6F6F7;verticalAlign=top;align=left;spacingLeft=30;fontColor=#147EBA;dashed=0;movable=1;resizable=1;rotatable=1;deletable=1;editable=1;locked=0;connectable=1;" vertex="1" parent="1">
          <mxGeometry x="140.1818181818182" y="1125.3333333333335" width="330.54545454545456" height="242.66666666666666" as="geometry" />
        </mxCell>
        <mxCell id="pz5psoKOltUB96HxPEzv-16" value="Private subnet" style="points=[[0,0],[0.25,0],[0.5,0],[0.75,0],[1,0],[1,0.25],[1,0.5],[1,0.75],[1,1],[0.75,1],[0.5,1],[0.25,1],[0,1],[0,0.75],[0,0.5],[0,0.25]];outlineConnect=0;gradientColor=none;html=1;whiteSpace=wrap;fontSize=12;fontStyle=0;container=1;pointerEvents=0;collapsible=0;recursiveResize=0;shape=mxgraph.aws4.group;grIcon=mxgraph.aws4.group_security_group;grStroke=0;strokeColor=#00A4A6;fillColor=#E6F6F7;verticalAlign=top;align=left;spacingLeft=30;fontColor=#147EBA;dashed=0;movable=1;resizable=1;rotatable=1;deletable=1;editable=1;locked=0;connectable=1;" vertex="1" parent="1">
          <mxGeometry x="599.2727272727273" y="1125.3333333333335" width="330.54545454545456" height="242.66666666666666" as="geometry" />
        </mxCell>
        <mxCell id="pz5psoKOltUB96HxPEzv-19" value="VPC" style="points=[[0,0],[0.25,0],[0.5,0],[0.75,0],[1,0],[1,0.25],[1,0.5],[1,0.75],[1,1],[0.75,1],[0.5,1],[0.25,1],[0,1],[0,0.75],[0,0.5],[0,0.25]];outlineConnect=0;gradientColor=none;html=1;whiteSpace=wrap;fontSize=12;fontStyle=0;container=1;pointerEvents=0;collapsible=0;recursiveResize=0;shape=mxgraph.aws4.group;grIcon=mxgraph.aws4.group_vpc2;strokeColor=#8C4FFF;fillColor=none;verticalAlign=top;align=left;spacingLeft=30;fontColor=#AAB7B8;dashed=0;movable=1;resizable=1;rotatable=1;deletable=1;editable=1;locked=0;connectable=1;" vertex="1" parent="1">
          <mxGeometry x="85.0909090909091" y="705.3333333333333" width="899.8181818181819" height="728" as="geometry" />
        </mxCell>
        <mxCell id="pz5psoKOltUB96HxPEzv-21" value="" style="sketch=0;outlineConnect=0;fontColor=#232F3E;gradientColor=none;fillColor=#8C4FFF;strokeColor=none;dashed=0;verticalLabelPosition=bottom;verticalAlign=top;align=center;html=1;fontSize=12;fontStyle=0;aspect=fixed;pointerEvents=1;shape=mxgraph.aws4.application_load_balancer;movable=1;resizable=1;rotatable=1;deletable=1;editable=1;locked=0;connectable=1;" vertex="1" parent="pz5psoKOltUB96HxPEzv-19">
          <mxGeometry x="414.1" y="179.4466666666667" width="71.61818181818182" height="71.61818181818182" as="geometry" />
        </mxCell>
        <mxCell id="pz5psoKOltUB96HxPEzv-22" value="" style="sketch=0;outlineConnect=0;fontColor=#232F3E;gradientColor=none;fillColor=#8C4FFF;strokeColor=none;dashed=0;verticalLabelPosition=bottom;verticalAlign=top;align=center;html=1;fontSize=12;fontStyle=0;aspect=fixed;pointerEvents=1;shape=mxgraph.aws4.nat_gateway;movable=1;resizable=1;rotatable=1;deletable=1;editable=1;locked=0;connectable=1;" vertex="1" parent="pz5psoKOltUB96HxPEzv-19">
          <mxGeometry x="184.55454545454546" y="251.06666666666666" width="71.61818181818182" height="71.61818181818182" as="geometry" />
        </mxCell>
        <mxCell id="pz5psoKOltUB96HxPEzv-25" value="" style="sketch=0;points=[[0,0,0],[0.25,0,0],[0.5,0,0],[0.75,0,0],[1,0,0],[0,1,0],[0.25,1,0],[0.5,1,0],[0.75,1,0],[1,1,0],[0,0.25,0],[0,0.5,0],[0,0.75,0],[1,0.25,0],[1,0.5,0],[1,0.75,0]];outlineConnect=0;fontColor=#232F3E;fillColor=#C925D1;strokeColor=#ffffff;dashed=0;verticalLabelPosition=bottom;verticalAlign=top;align=center;html=1;fontSize=12;fontStyle=0;aspect=fixed;shape=mxgraph.aws4.resourceIcon;resIcon=mxgraph.aws4.rds;movable=1;resizable=1;rotatable=1;deletable=1;editable=1;locked=0;connectable=1;" vertex="1" parent="pz5psoKOltUB96HxPEzv-19">
          <mxGeometry x="184.55454545454546" y="588" width="71.61818181818182" height="71.61818181818182" as="geometry" />
        </mxCell>
        <mxCell id="pz5psoKOltUB96HxPEzv-26" value="" style="sketch=0;points=[[0,0,0],[0.25,0,0],[0.5,0,0],[0.75,0,0],[1,0,0],[0,1,0],[0.25,1,0],[0.5,1,0],[0.75,1,0],[1,1,0],[0,0.25,0],[0,0.5,0],[0,0.75,0],[1,0.25,0],[1,0.5,0],[1,0.75,0]];outlineConnect=0;fontColor=#232F3E;fillColor=#C925D1;strokeColor=#ffffff;dashed=0;verticalLabelPosition=bottom;verticalAlign=top;align=center;html=1;fontSize=12;fontStyle=0;aspect=fixed;shape=mxgraph.aws4.resourceIcon;resIcon=mxgraph.aws4.rds;movable=1;resizable=1;rotatable=1;deletable=1;editable=1;locked=0;connectable=1;" vertex="1" parent="pz5psoKOltUB96HxPEzv-19">
          <mxGeometry x="651.9090909090909" y="588" width="71.61818181818182" height="71.61818181818182" as="geometry" />
        </mxCell>
        <mxCell id="pz5psoKOltUB96HxPEzv-33" value="Security group" style="fillColor=none;strokeColor=#DD3522;verticalAlign=top;fontStyle=0;fontColor=#DD3522;whiteSpace=wrap;html=1;" vertex="1" parent="pz5psoKOltUB96HxPEzv-19">
          <mxGeometry x="126.17" y="144.67" width="643.83" height="130" as="geometry" />
        </mxCell>
        <mxCell id="pz5psoKOltUB96HxPEzv-34" value="" style="sketch=0;outlineConnect=0;fontColor=#232F3E;gradientColor=none;fillColor=#8C4FFF;strokeColor=none;dashed=0;verticalLabelPosition=bottom;verticalAlign=top;align=center;html=1;fontSize=12;fontStyle=0;aspect=fixed;pointerEvents=1;shape=mxgraph.aws4.internet_gateway;" vertex="1" parent="pz5psoKOltUB96HxPEzv-19">
          <mxGeometry x="409.08909090909094" y="-45.33333333333326" width="78" height="78" as="geometry" />
        </mxCell>
        <mxCell id="pz5psoKOltUB96HxPEzv-35" value="" style="edgeStyle=orthogonalEdgeStyle;html=1;endArrow=none;elbow=vertical;startArrow=block;startFill=1;strokeColor=#545B64;rounded=0;" edge="1" parent="pz5psoKOltUB96HxPEzv-19">
          <mxGeometry width="100" relative="1" as="geometry">
            <mxPoint x="446.9090909090909" y="183.66666666666674" as="sourcePoint" />
            <mxPoint x="446.9090909090909" y="33.66666666666674" as="targetPoint" />
            <Array as="points" />
          </mxGeometry>
        </mxCell>
        <mxCell id="pz5psoKOltUB96HxPEzv-36" value="" style="edgeStyle=orthogonalEdgeStyle;html=1;endArrow=none;elbow=vertical;startArrow=block;startFill=1;strokeColor=#545B64;rounded=0;" edge="1" parent="pz5psoKOltUB96HxPEzv-19" source="pz5psoKOltUB96HxPEzv-32">
          <mxGeometry width="100" relative="1" as="geometry">
            <mxPoint x="414.9090909090909" y="472.6866666666667" as="sourcePoint" />
            <mxPoint x="447.9090909090909" y="254.66666666666674" as="targetPoint" />
            <Array as="points">
              <mxPoint x="220" y="375" />
              <mxPoint x="448" y="375" />
            </Array>
          </mxGeometry>
        </mxCell>
        <mxCell id="pz5psoKOltUB96HxPEzv-23" value="" style="sketch=0;outlineConnect=0;fontColor=#232F3E;gradientColor=none;fillColor=#8C4FFF;strokeColor=none;dashed=0;verticalLabelPosition=bottom;verticalAlign=top;align=center;html=1;fontSize=12;fontStyle=0;aspect=fixed;pointerEvents=1;shape=mxgraph.aws4.nat_gateway;movable=1;resizable=1;rotatable=1;deletable=1;editable=1;locked=0;connectable=1;" vertex="1" parent="1">
          <mxGeometry x="737" y="959.2" width="71.61818181818182" height="71.61818181818182" as="geometry" />
        </mxCell>
        <mxCell id="pz5psoKOltUB96HxPEzv-28" value="" style="sketch=0;points=[[0,0,0],[0.25,0,0],[0.5,0,0],[0.75,0,0],[1,0,0],[0,1,0],[0.25,1,0],[0.5,1,0],[0.75,1,0],[1,1,0],[0,0.25,0],[0,0.5,0],[0,0.75,0],[1,0.25,0],[1,0.5,0],[1,0.75,0]];outlineConnect=0;fontColor=#232F3E;fillColor=#ED7100;strokeColor=#ffffff;dashed=0;verticalLabelPosition=bottom;verticalAlign=top;align=center;html=1;fontSize=12;fontStyle=0;aspect=fixed;shape=mxgraph.aws4.resourceIcon;resIcon=mxgraph.aws4.fargate;movable=1;resizable=1;rotatable=1;deletable=1;editable=1;locked=0;connectable=1;" vertex="1" parent="1">
          <mxGeometry x="1033.19" y="1140.0033333333336" width="71.61818181818182" height="71.61818181818182" as="geometry" />
        </mxCell>
        <mxCell id="pz5psoKOltUB96HxPEzv-29" value="" style="sketch=0;points=[[0,0,0],[0.25,0,0],[0.5,0,0],[0.75,0,0],[1,0,0],[0,1,0],[0.25,1,0],[0.5,1,0],[0.75,1,0],[1,1,0],[0,0.25,0],[0,0.5,0],[0,0.75,0],[1,0.25,0],[1,0.5,0],[1,0.75,0]];outlineConnect=0;fontColor=#232F3E;fillColor=#ED7100;strokeColor=#ffffff;dashed=0;verticalLabelPosition=bottom;verticalAlign=top;align=center;html=1;fontSize=12;fontStyle=0;aspect=fixed;shape=mxgraph.aws4.resourceIcon;resIcon=mxgraph.aws4.ecr;movable=1;resizable=1;rotatable=1;deletable=1;editable=1;locked=0;connectable=1;" vertex="1" parent="1">
          <mxGeometry x="1033.1881818181819" y="1259.9966666666664" width="71.61818181818182" height="71.61818181818182" as="geometry" />
        </mxCell>
        <mxCell id="pz5psoKOltUB96HxPEzv-32" value="" style="sketch=0;outlineConnect=0;fontColor=#232F3E;gradientColor=none;fillColor=#ED7100;strokeColor=none;dashed=0;verticalLabelPosition=bottom;verticalAlign=top;align=center;html=1;fontSize=12;fontStyle=0;aspect=fixed;pointerEvents=1;shape=mxgraph.aws4.container_2;" vertex="1" parent="1">
          <mxGeometry x="251.26" y="1160" width="108.39" height="70" as="geometry" />
        </mxCell>
        <mxCell id="pz5psoKOltUB96HxPEzv-37" value="" style="sketch=0;outlineConnect=0;fontColor=#232F3E;gradientColor=none;fillColor=#ED7100;strokeColor=none;dashed=0;verticalLabelPosition=bottom;verticalAlign=top;align=center;html=1;fontSize=12;fontStyle=0;aspect=fixed;pointerEvents=1;shape=mxgraph.aws4.container_2;" vertex="1" parent="1">
          <mxGeometry x="718.61" y="1160" width="108.39" height="70" as="geometry" />
        </mxCell>
        <mxCell id="pz5psoKOltUB96HxPEzv-39" value="" style="edgeStyle=orthogonalEdgeStyle;html=1;endArrow=none;elbow=vertical;startArrow=open;startFill=0;strokeColor=#545B64;rounded=0;exitX=0.5;exitY=0;exitDx=0;exitDy=0;exitPerimeter=0;" edge="1" parent="1" source="pz5psoKOltUB96HxPEzv-25" target="pz5psoKOltUB96HxPEzv-32">
          <mxGeometry width="100" relative="1" as="geometry">
            <mxPoint x="230" y="1260" as="sourcePoint" />
            <mxPoint x="330" y="1260" as="targetPoint" />
          </mxGeometry>
        </mxCell>
        <mxCell id="pz5psoKOltUB96HxPEzv-42" value="" style="edgeStyle=orthogonalEdgeStyle;html=1;endArrow=none;elbow=vertical;startArrow=open;startFill=0;strokeColor=#545B64;rounded=0;" edge="1" parent="1" source="pz5psoKOltUB96HxPEzv-43" target="pz5psoKOltUB96HxPEzv-28">
          <mxGeometry width="100" relative="1" as="geometry">
            <mxPoint x="900" y="1180" as="sourcePoint" />
            <mxPoint x="1000" y="1180" as="targetPoint" />
            <Array as="points">
              <mxPoint x="580" y="1195" />
              <mxPoint x="580" y="1090" />
              <mxPoint x="1056" y="1090" />
            </Array>
          </mxGeometry>
        </mxCell>
        <mxCell id="pz5psoKOltUB96HxPEzv-44" value="" style="edgeStyle=orthogonalEdgeStyle;html=1;endArrow=none;elbow=vertical;startArrow=open;startFill=0;strokeColor=#545B64;rounded=0;" edge="1" parent="1" source="pz5psoKOltUB96HxPEzv-32" target="pz5psoKOltUB96HxPEzv-43">
          <mxGeometry width="100" relative="1" as="geometry">
            <mxPoint x="360" y="1195" as="sourcePoint" />
            <mxPoint x="1056" y="1140" as="targetPoint" />
            <Array as="points" />
          </mxGeometry>
        </mxCell>
        <mxCell id="pz5psoKOltUB96HxPEzv-43" value="" style="sketch=0;outlineConnect=0;fontColor=#232F3E;gradientColor=none;fillColor=#8C4FFF;strokeColor=none;dashed=0;verticalLabelPosition=bottom;verticalAlign=top;align=center;html=1;fontSize=12;fontStyle=0;aspect=fixed;pointerEvents=1;shape=mxgraph.aws4.endpoints;" vertex="1" parent="1">
          <mxGeometry x="450" y="1156" width="78" height="78" as="geometry" />
        </mxCell>
        <mxCell id="pz5psoKOltUB96HxPEzv-45" value="" style="sketch=0;points=[[0,0,0],[0.25,0,0],[0.5,0,0],[0.75,0,0],[1,0,0],[0,1,0],[0.25,1,0],[0.5,1,0],[0.75,1,0],[1,1,0],[0,0.25,0],[0,0.5,0],[0,0.75,0],[1,0.25,0],[1,0.5,0],[1,0.75,0]];outlineConnect=0;fontColor=#232F3E;fillColor=#DD344C;strokeColor=#ffffff;dashed=0;verticalLabelPosition=bottom;verticalAlign=top;align=center;html=1;fontSize=12;fontStyle=0;aspect=fixed;shape=mxgraph.aws4.resourceIcon;resIcon=mxgraph.aws4.certificate_manager_3;" vertex="1" parent="1">
          <mxGeometry x="1030" y="956.01" width="78" height="78" as="geometry" />
        </mxCell>
        <mxCell id="pz5psoKOltUB96HxPEzv-46" value="" style="sketch=0;points=[[0,0,0],[0.25,0,0],[0.5,0,0],[0.75,0,0],[1,0,0],[0,1,0],[0.25,1,0],[0.5,1,0],[0.75,1,0],[1,1,0],[0,0.25,0],[0,0.5,0],[0,0.75,0],[1,0.25,0],[1,0.5,0],[1,0.75,0]];outlineConnect=0;fontColor=#232F3E;fillColor=#7AA116;strokeColor=#ffffff;dashed=0;verticalLabelPosition=bottom;verticalAlign=top;align=center;html=1;fontSize=12;fontStyle=0;aspect=fixed;shape=mxgraph.aws4.resourceIcon;resIcon=mxgraph.aws4.s3;" vertex="1" parent="1">
          <mxGeometry x="1030" y="840" width="78" height="78" as="geometry" />
        </mxCell>
        <mxCell id="pz5psoKOltUB96HxPEzv-48" value="" style="edgeStyle=orthogonalEdgeStyle;html=1;endArrow=openThin;elbow=vertical;startArrow=openThin;startFill=0;endFill=0;strokeColor=#545B64;rounded=0;entryX=0;entryY=0.5;entryDx=0;entryDy=0;entryPerimeter=0;" edge="1" parent="1" source="pz5psoKOltUB96HxPEzv-43" target="pz5psoKOltUB96HxPEzv-45">
          <mxGeometry width="100" relative="1" as="geometry">
            <mxPoint x="550" y="1080" as="sourcePoint" />
            <mxPoint x="650" y="1080" as="targetPoint" />
            <Array as="points">
              <mxPoint x="570" y="1195" />
              <mxPoint x="570" y="1060" />
              <mxPoint x="1020" y="1060" />
            </Array>
          </mxGeometry>
        </mxCell>
        <mxCell id="pz5psoKOltUB96HxPEzv-49" value="" style="edgeStyle=orthogonalEdgeStyle;html=1;endArrow=openThin;elbow=vertical;startArrow=openThin;startFill=0;endFill=0;strokeColor=#545B64;rounded=0;entryX=0;entryY=0.5;entryDx=0;entryDy=0;entryPerimeter=0;" edge="1" parent="1" source="pz5psoKOltUB96HxPEzv-43" target="pz5psoKOltUB96HxPEzv-46">
          <mxGeometry width="100" relative="1" as="geometry">
            <mxPoint x="538" y="1205" as="sourcePoint" />
            <mxPoint x="1030" y="1008" as="targetPoint" />
            <Array as="points">
              <mxPoint x="580" y="1190" />
              <mxPoint x="580" y="1070" />
              <mxPoint x="1010" y="1070" />
              <mxPoint x="1010" y="879" />
            </Array>
          </mxGeometry>
        </mxCell>
        <mxCell id="pz5psoKOltUB96HxPEzv-50" value="" style="edgeStyle=orthogonalEdgeStyle;html=1;endArrow=openThin;elbow=vertical;startArrow=openThin;startFill=0;endFill=0;strokeColor=#545B64;rounded=0;exitX=0.5;exitY=1;exitDx=0;exitDy=0;exitPerimeter=0;entryX=0.5;entryY=0;entryDx=0;entryDy=0;entryPerimeter=0;" edge="1" parent="1" source="pz5psoKOltUB96HxPEzv-28" target="pz5psoKOltUB96HxPEzv-29">
          <mxGeometry width="100" relative="1" as="geometry">
            <mxPoint x="1033.19" y="1246.17" as="sourcePoint" />
            <mxPoint x="1133.19" y="1246.17" as="targetPoint" />
          </mxGeometry>
        </mxCell>
        <mxCell id="pz5psoKOltUB96HxPEzv-51" value="" style="edgeStyle=orthogonalEdgeStyle;html=1;endArrow=block;elbow=vertical;startArrow=block;startFill=1;endFill=1;strokeColor=#545B64;rounded=0;" edge="1" parent="1" source="pz5psoKOltUB96HxPEzv-34" target="pz5psoKOltUB96HxPEzv-18">
          <mxGeometry width="100" relative="1" as="geometry">
            <mxPoint x="550" y="720" as="sourcePoint" />
            <mxPoint x="650" y="720" as="targetPoint" />
            <Array as="points">
              <mxPoint x="533" y="600" />
            </Array>
          </mxGeometry>
        </mxCell>
        <mxCell id="pz5psoKOltUB96HxPEzv-52" value="Actor" style="shape=umlActor;verticalLabelPosition=bottom;verticalAlign=top;html=1;outlineConnect=0;" vertex="1" parent="1">
          <mxGeometry x="528" y="250" width="30" height="60" as="geometry" />
        </mxCell>
      </root>
    </mxGraphModel>
  </diagram>
</mxfile>
